<svg width="16" height="14" viewBox="0 0 16 14" fill="none" xmlns="http://www.w3.org/2000/svg">
<path d="M7.15153 2.74094V0.0136719H0.333344V12.2864H9.8788V10.9228H7.15153V9.55913H8.51516V8.19549H7.15153V6.83185H8.51516V5.46822H7.15153V4.10458H12.6061V8.19549H13.9697V2.74094H7.15153ZM3.06062 10.9228H1.69698V9.55913H3.06062V10.9228ZM3.06062 8.19549H1.69698V6.83185H3.06062V8.19549ZM3.06062 5.46822H1.69698V4.10458H3.06062V5.46822ZM3.06062 2.74094H1.69698V1.37731H3.06062V2.74094ZM5.78789 10.9228H4.42425V9.55913H5.78789V10.9228ZM5.78789 8.19549H4.42425V6.83185H5.78789V8.19549ZM5.78789 5.46822H4.42425V4.10458H5.78789V5.46822ZM5.78789 2.74094H4.42425V1.37731H5.78789V2.74094ZM15.3333 10.9228V12.2864H13.9697V13.65H12.6061V12.2864H11.2424V10.9228H12.6061V9.55913H13.9697V10.9228H15.3333ZM11.2424 5.46822H9.8788V6.83185H11.2424V5.46822ZM11.2424 8.19549H9.8788V9.55913H11.2424V8.19549Z" fill="#48BB78"/>
</svg>
